<?xml version="1.0" encoding="UTF-8"?>
<svg width="36px" height="36px" viewBox="0 0 36 36" version="1.1" xmlns="http://www.w3.org/2000/svg" xmlns:xlink="http://www.w3.org/1999/xlink">
    <!-- Generator: Sketch 50.2 (55047) - http://www.bohemiancoding.com/sketch -->
    <title>当前行驶</title>
    <desc>Created with Sketch.</desc>
    <defs></defs>
    <g id="小程序" stroke="none" stroke-width="1" fill="none" fill-rule="evenodd" stroke-linecap="round">
        <g id="切图部分" transform="translate(-410.000000, -83.000000)" stroke="#4475FD">
            <g id="Group-6" transform="translate(413.656691, 91.743374)">
                <path d="M7.39103529,21.5419493 C15.2503985,21.5419493 21.6216712,15.1706766 21.6216712,7.31131336 C21.6216712,-0.548049823 15.2503985,-6.91932253 7.39103529,-6.91932253" id="Oval-6" stroke-width="2" transform="translate(14.506353, 7.311313) rotate(-90.000000) translate(-14.506353, -7.311313) "></path>
                <path d="M9.44283906,19.4901455 C15.0358424,19.4901455 19.5698674,14.9561205 19.5698674,9.36311714 C19.5698674,3.77011382 15.0358424,-0.763911218 9.44283906,-0.763911218" id="Oval-6-Copy" stroke-width="1.5" opacity="0.5" transform="translate(14.506353, 9.363117) rotate(-90.000000) translate(-14.506353, -9.363117) "></path>
                <path d="M11.962081,16.8955804 L16.9941792,9.94978903 C17.0265813,9.90506447 17.0891049,9.89507516 17.1338294,9.92747728 C17.1745629,9.95698793 17.1870368,10.0121622 17.1629597,10.0563253 L13.0521789,17.5964624 C12.8818651,17.9088579 12.4905519,18.0240379 12.1781564,17.8537241 C12.16463,17.8463497 12.1513726,17.8384925 12.1384096,17.8301677 L12.1384096,17.8301677 C11.8342962,17.6348662 11.7460868,17.2300105 11.9413882,16.9258972 C11.948001,16.9156001 11.9549013,16.9054905 11.962081,16.8955804 Z" id="Path-7" stroke-width="2"></path>
            </g>
        </g>
    </g>
</svg>