<?xml version="1.0" encoding="UTF-8"?>
<svg width="37px" height="36px" viewBox="0 0 37 36" version="1.1" xmlns="http://www.w3.org/2000/svg" xmlns:xlink="http://www.w3.org/1999/xlink">
    <!-- Generator: Sketch 50.2 (55047) - http://www.bohemiancoding.com/sketch -->
    <title>今日在线</title>
    <desc>Created with Sketch.</desc>
    <defs></defs>
    <g id="小程序" stroke="none" stroke-width="1" fill="none" fill-rule="evenodd">
        <g id="切图部分" transform="translate(-490.000000, -26.000000)" stroke="#4475FD" stroke-width="2">
            <g id="离线-copy" transform="translate(494.500000, 32.500000)">
                <path d="M23.1100685,11.3387169 C23.1100685,7.93146187 20.3479425,5.1693359 16.9406874,5.1693359" id="Path-Copy" opacity="0.5" stroke-linecap="round"></path>
                <path d="M27.7358682,11.3387169 C27.7358682,5.36864027 22.8961648,0.5289369 16.9260881,0.5289369" id="Path-Copy-2" opacity="0.800000012" stroke-linecap="round"></path>
                <path d="M5.1074155,22.2787025 C2.30519907,22.2787025 0.0335538084,20.0070573 0.0335538084,17.2048408 C0.0335538084,14.4892293 2.16695459,12.2719002 4.84917255,12.1374372 C5.37546274,8.99597092 8.10730629,6.6020287 11.398285,6.6020287 C14.8070539,6.6020287 17.6159463,9.17040481 17.9953563,12.477551 C19.8843829,13.2160809 21.2224326,15.0542018 21.2224326,17.2048408 C21.2224326,20.0070573 18.9507873,22.2787025 16.1485709,22.2787025 L5.1074155,22.2787025 Z" id="Oval-3"></path>
                <path d="M8.57904891,13.504571 C7.67146021,12.6527243 6.45036791,12.1309791 5.1074155,12.1309791" id="Oval-3" stroke-linecap="round"></path>
            </g>
        </g>
    </g>
</svg>