<?xml version="1.0" encoding="UTF-8"?>
<svg width="37px" height="36px" viewBox="0 0 37 36" version="1.1" xmlns="http://www.w3.org/2000/svg" xmlns:xlink="http://www.w3.org/1999/xlink">
    <!-- Generator: Sketch 50.2 (55047) - http://www.bohemiancoding.com/sketch -->
    <title>当前停车</title>
    <desc>Created with Sketch.</desc>
    <defs></defs>
    <g id="小程序" stroke="none" stroke-width="1" fill="none" fill-rule="evenodd">
        <g id="切图部分" transform="translate(-490.000000, -83.000000)" stroke="#4475FD">
            <g id="Group-5" transform="translate(495.000000, 89.243374)">
                <path d="M13.0091144,3.30361469 L3.13945008,19.3781075 C2.99496177,19.6134323 3.06859925,19.9213316 3.303924,20.0658199 C3.38263075,20.1141455 3.47318462,20.1397268 3.56554323,20.1397268 L23.3048719,20.1397268 C23.5810143,20.1397268 23.8048719,19.9158691 23.8048719,19.6397268 C23.8048719,19.5473682 23.7792906,19.4568143 23.730965,19.3781075 L19.9924928,13.2893447 L18.0828821,10.1792061 L13.8613007,3.30361469 C13.7168124,3.06828994 13.4089131,2.99465245 13.1735883,3.13914076 C13.1065964,3.1802735 13.0502471,3.23662277 13.0091144,3.30361469 Z" id="Path-4" stroke-width="1.5" opacity="0.5"></path>
                <path d="M10.8785604,1.06498025 L0.397830379,18.1347015 C-0.469099486,19.54665 -0.0272745714,21.394046 1.38467395,22.2609758 C1.85691442,22.5509293 2.40023765,22.7044169 2.95438932,22.7044169 L23.9158493,22.7044169 C25.5727035,22.7044169 26.9158493,21.3612711 26.9158493,19.7044169 C26.9158493,19.1502652 26.7623617,18.606942 26.4724082,18.1347015 L15.9916782,1.06498025 C15.1247484,-0.346968272 13.2773524,-0.788793186 11.8654039,0.0781366786 C11.4634524,0.324933071 11.1253567,0.663028699 10.8785604,1.06498025 Z" id="Path-4-Copy" stroke-width="1.5"></path>
                <path d="M11.2104453,17.222015 L11.2104453,9.68957821 L14.3803714,9.68957821 C15.5368624,9.68957821 16.4743835,10.6270994 16.4743835,11.7835903 L16.4743835,11.7835903 C16.4743835,12.9400812 15.5368624,13.8776024 14.3803714,13.8776024 L11.2104453,13.8776024" id="Path-5" stroke-width="2" stroke-linecap="round" stroke-linejoin="round"></path>
            </g>
        </g>
    </g>
</svg>