<?xml version="1.0" encoding="UTF-8"?>
<svg width="36px" height="36px" viewBox="0 0 36 36" version="1.1" xmlns="http://www.w3.org/2000/svg" xmlns:xlink="http://www.w3.org/1999/xlink">
    <!-- Generator: Sketch 50.2 (55047) - http://www.bohemiancoding.com/sketch -->
    <title>所有车辆</title>
    <desc>Created with Sketch.</desc>
    <defs></defs>
    <g id="小程序" stroke="none" stroke-width="1" fill="none" fill-rule="evenodd">
        <g id="切图部分" transform="translate(-410.000000, -26.000000)">
            <g id="Group-4" transform="translate(414.156691, 35.277324)">
                <path d="M5.3803265,1.01430223 C5.47339986,-0.0163710357 6.33735416,-0.805822768 7.37222132,-0.805822768 L20.9049723,-0.805822768 C21.9289812,-0.805822768 22.7875739,-0.0323649015 22.8941174,0.986086207 L23.6202869,7.92755125 L4.75603617,7.92755125 L5.3803265,1.01430223 Z" id="Path-3" stroke="#4475FD" stroke-width="2" stroke-linecap="round" stroke-linejoin="round"></path>
                <path d="M4.79808885,7.92755125 L4.79808885,16.8074147 C4.79808885,17.3596994 5.2458041,17.8074147 5.79808885,17.8074147 L22.6500757,17.8074147 C23.2023604,17.8074147 23.6500757,17.3596994 23.6500757,16.8074147 L23.6500757,7.92755125 L4.79808885,7.92755125 Z" id="Rectangle-4" stroke="#4475FD" stroke-width="2"></path>
                <rect id="Rectangle-9" fill="#4475FD" opacity="0.5" x="4.65348148" y="17.8968027" width="4.25908335" height="3.78620966" rx="1.89310483"></rect>
                <rect id="Rectangle-9-Copy" fill="#4475FD" opacity="0.5" x="19.487892" y="17.8968027" width="4.25908335" height="3.78620966" rx="1.89310483"></rect>
                <path d="M25.02706,5.74337175 L26.9059781,5.74337175 C27.3380484,5.74337175 27.6883106,6.09363393 27.6883106,6.52570422 C27.6883106,6.66723614 27.6499163,6.80611709 27.577218,6.92755125 L27.1594513,7.62538323 C26.9788443,7.92706687 26.6530663,8.11173074 26.301453,8.11173074 L25.02706,8.11173074 C24.4747753,8.11173074 24.02706,7.66401549 24.02706,7.11173074 L24.02706,6.74337175 C24.02706,6.191087 24.4747753,5.74337175 25.02706,5.74337175 Z" id="Rectangle-9-Copy-2" fill="#4475FD"></path>
                <path d="M1.36760674,5.74337175 L3.24652481,5.74337175 C3.79880956,5.74337175 4.24652481,6.191087 4.24652481,6.74337175 L4.24652481,7.11173074 C4.24652481,7.66401549 3.79880956,8.11173074 3.24652481,8.11173074 L1.97213182,8.11173074 C1.6205185,8.11173074 1.29474056,7.92706687 1.1141335,7.62538323 L0.696366791,6.92755125 C0.474432808,6.55683566 0.595044128,6.07639826 0.965759714,5.85446428 C1.08719386,5.78176605 1.22607482,5.74337175 1.36760674,5.74337175 Z" id="Rectangle-9-Copy-3" fill="#4475FD"></path>
                <rect id="Path" fill="#4475FD" opacity="0.5" x="8.28147413" y="10.687522" width="11.8852163" height="1.55817776" rx="0.779088879"></rect>
                <rect id="Path" fill="#4475FD" opacity="0.5" x="8.71856998" y="13.4892662" width="11.0110246" height="1.55817776" rx="0.779088879"></rect>
            </g>
        </g>
    </g>
</svg>